<mxfile host="app.diagrams.net" modified="2023-08-05T19:37:47.992Z" agent="Mozilla/5.0 (Windows NT 10.0; Win64; x64) AppleWebKit/537.36 (KHTML, like Gecko) Chrome/114.0.0.0 Safari/537.36" version="21.6.6" etag="MOnj7Nyo3RhP7S0E3NG6" type="github">
  <diagram name="PÃ¡gina-1" id="c9cHzWevvLdPiAjK5EIx">
    <mxGraphModel>
      <root>
        <mxCell id="0" />
        <mxCell id="1" parent="0" />
      </root>
    </mxGraphModel>
  </diagram>
</mxfile>
